<?xml version="1.0" standalone="no"?>
<svg viewBox="0 0 200 200" opacity="0.3" xmlns="http://www.w3.org/2000/svg">
  <path fill="#9EDDFF" d="M44.7,-56.5C58.5,-51.5,70.8,-39.2,74.8,-24.8C78.9,-10.3,74.7,6.3,68.9,21.8C63.1,37.4,55.6,51.8,43.8,64.1C32.1,76.4,16,86.6,1.2,84.9C-13.6,83.2,-27.3,69.8,-39.6,57.6C-52,45.5,-63.1,34.8,-66.2,22.2C-69.3,9.6,-64.4,-4.8,-61.8,-22.3C-59.2,-39.8,-59,-60.3,-49,-66.7C-39.1,-73,-19.6,-65.2,-2.1,-62.4C15.4,-59.5,30.9,-61.6,44.7,-56.5Z" transform="translate(100 100)" />
</svg>
